<svg width="40" height="15" viewBox="0 0 40 15" fill="none" xmlns="http://www.w3.org/2000/svg">
<path d="M4.3 14.26C3.28667 14.26 2.48 14 1.88 13.48C1.28 12.9467 0.98 12.2333 0.98 11.34C0.98 10.5 1.22 9.82667 1.7 9.32C2.18 8.81333 3 8.46667 4.16 8.28L6.58 7.86C7.06 7.78 7.4 7.66 7.6 7.5C7.8 7.34 7.9 7.1 7.9 6.78C7.9 6.35333 7.75333 6.02667 7.46 5.8C7.16667 5.57333 6.65333 5.46 5.92 5.46C4.48 5.46 3.72 6.03333 3.64 7.18H1.2C1.22667 6.1 1.64667 5.24667 2.46 4.62C3.27333 3.98 4.40667 3.66 5.86 3.66C7.27333 3.66 8.34667 3.95333 9.08 4.54C9.81333 5.11333 10.18 5.90667 10.18 6.92V11.56C10.18 12.28 10.22 13.0933 10.3 14H8.1C8.02 13.28 7.98 12.5467 7.98 11.8C7.74 12.52 7.31333 13.1133 6.7 13.58C6.08667 14.0333 5.28667 14.26 4.3 14.26ZM5.02 12.48C5.92667 12.48 6.63333 12.18 7.14 11.58C7.64667 10.98 7.9 10.1867 7.9 9.2V8.66C7.67333 8.83333 7.42667 8.96667 7.16 9.06C6.90667 9.15333 6.58 9.24667 6.18 9.34L5.08 9.6C4.49333 9.74667 4.07333 9.94 3.82 10.18C3.56667 10.4067 3.44 10.7267 3.44 11.14C3.44 11.5667 3.58 11.9 3.86 12.14C4.15333 12.3667 4.54 12.48 5.02 12.48ZM20.7077 3.68C22.241 3.68 23.3943 4.18 24.1677 5.18C24.941 6.16667 25.3277 7.44 25.3277 9C25.3277 10.56 24.941 11.84 24.1677 12.84C23.3943 13.8267 22.241 14.32 20.7077 14.32C19.001 14.32 17.7877 13.68 17.0677 12.4V14H14.5877V-9.53674e-07H17.0677V5.6C17.7877 4.32 19.001 3.68 20.7077 3.68ZM20.0277 12.36C21.041 12.36 21.761 12.0933 22.1877 11.56C22.6277 11.0133 22.8477 10.16 22.8477 9C22.8477 7.84 22.6277 6.99333 22.1877 6.46C21.761 5.91333 21.041 5.64 20.0277 5.64C19.0277 5.64 18.281 5.91333 17.7877 6.46C17.3077 7.00667 17.0677 7.85333 17.0677 9C17.0677 10.1467 17.3077 10.9933 17.7877 11.54C18.281 12.0867 19.0277 12.36 20.0277 12.36ZM28.8048 9C28.8048 8.01333 28.9982 7.12 29.3848 6.32C29.7848 5.50667 30.3782 4.86667 31.1648 4.4C31.9648 3.92 32.9448 3.68 34.1048 3.68C35.6782 3.68 36.8915 4.07333 37.7448 4.86C38.6115 5.63333 39.0715 6.64667 39.1248 7.9H36.7448C36.6648 7.20667 36.4182 6.66 36.0048 6.26C35.5915 5.84667 34.9782 5.64 34.1648 5.64C33.2315 5.64 32.5182 5.9 32.0248 6.42C31.5315 6.94 31.2848 7.8 31.2848 9C31.2848 10.2133 31.5248 11.08 32.0048 11.6C32.4848 12.1067 33.1915 12.36 34.1248 12.36C34.9515 12.36 35.5848 12.1467 36.0248 11.72C36.4782 11.2933 36.7448 10.7267 36.8248 10.02H39.2048C39.1782 10.8067 38.9715 11.5267 38.5848 12.18C38.1982 12.82 37.6248 13.34 36.8648 13.74C36.1182 14.1267 35.2115 14.32 34.1448 14.32C32.9715 14.32 31.9848 14.0867 31.1848 13.62C30.3848 13.14 29.7848 12.5 29.3848 11.7C28.9982 10.8867 28.8048 9.98667 28.8048 9Z" fill="#F2541A"/>
</svg>
