<svg width="40" height="16" viewBox="0 0 40 16" fill="none" xmlns="http://www.w3.org/2000/svg">
<path d="M1.88 14.48L1.54779 14.8537L1.55253 14.8578L1.88 14.48ZM1.7 10.32L1.33702 9.97613H1.33702L1.7 10.32ZM4.16 9.28L4.23944 9.77369L4.2455 9.77264L4.16 9.28ZM6.58 8.86L6.4978 8.36679L6.4945 8.36736L6.58 8.86ZM7.6 8.5L7.91235 8.89043H7.91235L7.6 8.5ZM7.46 6.8L7.76572 6.40436H7.76572L7.46 6.8ZM3.64 8.18V8.68H4.10633L4.13879 8.2148L3.64 8.18ZM1.2 8.18L0.700152 8.16766L0.687502 8.68H1.2V8.18ZM2.46 5.62L2.76518 6.01609L2.7692 6.01294L2.46 5.62ZM9.08 5.54L8.76763 5.93046L8.77204 5.9339L9.08 5.54ZM10.3 15V15.5H10.8461L10.7981 14.9561L10.3 15ZM8.1 15L7.60306 15.0552L7.65248 15.5H8.1V15ZM7.98 12.8H8.48L7.50566 12.6419L7.98 12.8ZM6.7 14.58L6.99722 14.9821L7.00276 14.9779L6.7 14.58ZM7.14 12.58L7.52202 12.9026V12.9026L7.14 12.58ZM7.9 9.66H8.4V8.64821L7.59627 9.26282L7.9 9.66ZM7.16 10.06L6.9948 9.58801L6.98715 9.59083L7.16 10.06ZM6.18 10.34L6.06639 9.85308L6.06499 9.85341L6.18 10.34ZM5.08 10.6L4.96498 10.1134L4.95873 10.1149L5.08 10.6ZM3.82 11.18L4.1534 11.5526L4.1587 11.5479L4.16387 11.543L3.82 11.18ZM3.86 13.14L3.5346 13.5196L3.54424 13.5279L3.55428 13.5356L3.86 13.14ZM4.3 14.76C3.37283 14.76 2.69371 14.5236 2.20747 14.1022L1.55253 14.8578C2.26629 15.4764 3.20051 15.76 4.3 15.76V14.76ZM2.21218 14.1063C1.73167 13.6792 1.48 13.1085 1.48 12.34H0.48C0.48 13.3582 0.828331 14.2142 1.54782 14.8537L2.21218 14.1063ZM1.48 12.34C1.48 11.6003 1.68828 11.0594 2.06298 10.6639L1.33702 9.97613C0.751722 10.5939 0.48 11.3997 0.48 12.34H1.48ZM2.06298 10.6639C2.43117 10.2752 3.12055 9.9537 4.23944 9.77365L4.08056 8.78635C2.87945 8.97963 1.92883 9.35145 1.33702 9.97613L2.06298 10.6639ZM4.2455 9.77264L6.6655 9.35264L6.4945 8.36736L4.0745 8.78736L4.2455 9.77264ZM6.6622 9.3532C7.16321 9.2697 7.60904 9.13308 7.91235 8.89043L7.28765 8.10956C7.19096 8.18692 6.9568 8.2903 6.4978 8.3668L6.6622 9.3532ZM7.91235 8.89043C8.25999 8.61232 8.4 8.21035 8.4 7.78H7.4C7.4 7.98965 7.34001 8.06768 7.28765 8.10957L7.91235 8.89043ZM8.4 7.78C8.4 7.22496 8.20112 6.7408 7.76572 6.40436L7.15428 7.19564C7.30555 7.31253 7.4 7.4817 7.4 7.78H8.4ZM7.76572 6.40436C7.3329 6.0699 6.67264 5.96 5.92 5.96V6.96C6.63402 6.96 7.00044 7.07677 7.15428 7.19564L7.76572 6.40436ZM5.92 5.96C5.14414 5.96 4.46999 6.11281 3.96888 6.49084C3.44955 6.88262 3.189 7.46025 3.14121 8.1452L4.13879 8.2148C4.171 7.75308 4.33045 7.47071 4.57112 7.28916C4.83001 7.09385 5.25586 6.96 5.92 6.96V5.96ZM3.64 7.68H1.2V8.68H3.64V7.68ZM1.69985 8.19234C1.72302 7.254 2.07826 6.54533 2.76517 6.01607L2.15483 5.22393C1.21507 5.94801 0.730317 6.946 0.700152 8.16766L1.69985 8.19234ZM2.7692 6.01294C3.46487 5.46552 4.47437 5.16 5.86 5.16V4.16C4.33896 4.16 3.0818 4.49448 2.1508 5.22706L2.7692 6.01294ZM5.86 5.16C7.21465 5.16 8.15797 5.44269 8.76765 5.93043L9.39235 5.14957C8.53536 4.46398 7.33202 4.16 5.86 4.16V5.16ZM8.77204 5.9339C9.37234 6.40323 9.68 7.04486 9.68 7.92H10.68C10.68 6.76847 10.2543 5.82344 9.38796 5.1461L8.77204 5.9339ZM9.68 7.92V12.56H10.68V7.92H9.68ZM9.68 12.56C9.68 13.2979 9.72096 14.1263 9.80194 15.0439L10.7981 14.9561C10.719 14.0604 10.68 13.2621 10.68 12.56H9.68ZM10.3 14.5H8.1V15.5H10.3V14.5ZM8.59694 14.9448C8.51904 14.2437 8.48 13.5288 8.48 12.8H7.48C7.48 13.5646 7.52096 14.3163 7.60306 15.0552L8.59694 14.9448ZM7.50566 12.6419C7.29797 13.265 6.93189 13.7753 6.39724 14.1821L7.00276 14.9779C7.69477 14.4514 8.18203 13.775 8.45434 12.9581L7.50566 12.6419ZM6.4028 14.1779C5.89778 14.5512 5.21115 14.76 4.3 14.76V15.76C5.36218 15.76 6.27556 15.5155 6.9972 14.9821L6.4028 14.1779ZM5.02 13.98C6.04857 13.98 6.90512 13.6331 7.52202 12.9026L6.75799 12.2574C6.36154 12.7269 5.80477 12.98 5.02 12.98V13.98ZM7.52202 12.9026C8.12281 12.1911 8.4 11.2736 8.4 10.2H7.4C7.4 11.0997 7.17053 11.7689 6.75799 12.2574L7.52202 12.9026ZM8.4 10.2V9.66H7.4V10.2H8.4ZM7.59627 9.26282C7.41113 9.4044 7.21115 9.51236 6.99482 9.58807L7.32518 10.5319C7.64219 10.421 7.93554 10.2623 8.20373 10.0572L7.59627 9.26282ZM6.98715 9.59083C6.76037 9.67438 6.45549 9.76229 6.06639 9.85308L6.29361 10.8269C6.70451 10.731 7.05296 10.6323 7.33285 10.5292L6.98715 9.59083ZM6.06499 9.85341L4.96499 10.1134L5.19501 11.0866L6.29501 10.8266L6.06499 9.85341ZM4.95873 10.1149C4.34184 10.2692 3.82235 10.489 3.47613 10.817L4.16387 11.543C4.32432 11.391 4.64483 11.2242 5.20127 11.0851L4.95873 10.1149ZM3.4866 10.8074C3.10472 11.1491 2.94 11.6177 2.94 12.14H3.94C3.94 11.8356 4.02861 11.6643 4.1534 11.5526L3.4866 10.8074ZM2.94 12.14C2.94 12.6872 3.12582 13.1692 3.5346 13.5196L4.1854 12.7604C4.03418 12.6308 3.94 12.4461 3.94 12.14H2.94ZM3.55428 13.5356C3.95802 13.8476 4.4622 13.98 5.02 13.98V12.98C4.6178 12.98 4.34865 12.8857 4.16572 12.7444L3.55428 13.5356ZM24.1677 6.18L23.7721 6.48588L23.7741 6.48844L24.1677 6.18ZM24.1677 13.84L24.5612 14.1484L24.5632 14.1459L24.1677 13.84ZM17.0677 13.4L17.5034 13.1549L16.5677 11.4912V13.4H17.0677ZM17.0677 15V15.5H17.5677V15H17.0677ZM14.5877 15H14.0877V15.5H14.5877V15ZM14.5877 0.999999V0.499999H14.0877V0.999999H14.5877ZM17.0677 0.999999H17.5677V0.499999H17.0677V0.999999ZM17.0677 6.6H16.5677V8.50875L17.5034 6.84513L17.0677 6.6ZM22.1877 12.56L21.7981 12.2465L21.7972 12.2477L22.1877 12.56ZM22.1877 7.46L21.7934 7.76775L21.802 7.77819L22.1877 7.46ZM17.7877 7.46L17.4164 7.12499L17.4119 7.1301L17.7877 7.46ZM17.7877 12.54L17.4119 12.8699L17.4165 12.875L17.7877 12.54ZM20.7077 5.18C22.1229 5.18 23.1139 5.6347 23.7721 6.48587L24.5632 5.87413C23.6748 4.7253 22.3591 4.18 20.7077 4.18V5.18ZM23.7741 6.48844C24.463 7.36738 24.8277 8.52389 24.8277 10H25.8277C25.8277 8.35611 25.419 6.96596 24.5612 5.87156L23.7741 6.48844ZM24.8277 10C24.8277 11.4758 24.4631 12.6406 23.7721 13.5341L24.5632 14.1459C25.4188 13.0394 25.8277 11.6442 25.8277 10H24.8277ZM23.7741 13.5316C23.1168 14.3703 22.1253 14.82 20.7077 14.82V15.82C22.3566 15.82 23.6719 15.2831 24.5612 14.1484L23.7741 13.5316ZM20.7077 14.82C19.1465 14.82 18.1189 14.249 17.5034 13.1549L16.6319 13.6451C17.4564 15.111 18.8555 15.82 20.7077 15.82V14.82ZM16.5677 13.4V15H17.5677V13.4H16.5677ZM17.0677 14.5H14.5877V15.5H17.0677V14.5ZM15.0877 15V0.999999H14.0877V15H15.0877ZM14.5877 1.5H17.0677V0.499999H14.5877V1.5ZM16.5677 0.999999V6.6H17.5677V0.999999H16.5677ZM17.5034 6.84513C18.1189 5.75095 19.1465 5.18 20.7077 5.18V4.18C18.8555 4.18 17.4564 4.88905 16.6319 6.35487L17.5034 6.84513ZM20.0277 13.86C21.1173 13.86 22.0177 13.5729 22.5781 12.8723L21.7972 12.2477C21.5043 12.6138 20.9647 12.86 20.0277 12.86V13.86ZM22.5772 12.8735C23.1223 12.1962 23.3477 11.2054 23.3477 10H22.3477C22.3477 11.1146 22.133 11.8304 21.7982 12.2465L22.5772 12.8735ZM23.3477 10C23.3477 8.79613 23.1229 7.80795 22.5733 7.14181L21.802 7.77819C22.1324 8.17872 22.3477 8.88387 22.3477 10H23.3477ZM22.5818 7.15236C22.0227 6.43601 21.1211 6.14 20.0277 6.14V7.14C20.9609 7.14 21.4993 7.39065 21.7935 7.76764L22.5818 7.15236ZM20.0277 6.14C18.939 6.14 18.035 6.43958 17.4165 7.12502L18.1589 7.79498C18.527 7.38708 19.1163 7.14 20.0277 7.14V6.14ZM17.4119 7.1301C16.8168 7.80793 16.5677 8.79842 16.5677 10H17.5677C17.5677 8.90825 17.7985 8.20541 18.1634 7.7899L17.4119 7.1301ZM16.5677 10C16.5677 11.2016 16.8168 12.1921 17.4119 12.8699L18.1634 12.2101C17.7985 11.7946 17.5677 11.0917 17.5677 10H16.5677ZM17.4165 12.875C18.035 13.5604 18.939 13.86 20.0277 13.86V12.86C19.1163 12.86 18.527 12.6129 18.1589 12.205L17.4165 12.875ZM29.3848 7.32L28.9362 7.09933L28.9347 7.10242L29.3848 7.32ZM31.1648 5.4L31.4199 5.83003L31.4221 5.82875L31.1648 5.4ZM37.7448 5.86L37.4059 6.22767L37.4119 6.23307L37.7448 5.86ZM39.1248 8.9V9.4H39.6466L39.6244 8.87874L39.1248 8.9ZM36.7448 8.9L36.2481 8.95731L36.2992 9.4H36.7448V8.9ZM36.0048 7.26L35.6512 7.6136L35.6571 7.6193L36.0048 7.26ZM32.0048 12.6L31.6374 12.9392L31.6419 12.9439L32.0048 12.6ZM36.0248 12.72L35.6821 12.3559L35.6768 12.361L36.0248 12.72ZM36.8248 11.02V10.52H36.3783L36.328 10.9638L36.8248 11.02ZM39.2048 11.02L39.7046 11.0369L39.7221 10.52H39.2048V11.02ZM38.5848 13.18L39.0128 13.4386L39.0151 13.4347L38.5848 13.18ZM36.8648 14.74L37.0948 15.184L37.0977 15.1825L36.8648 14.74ZM31.1848 14.62L30.9276 15.0488L30.9329 15.0519L31.1848 14.62ZM29.3848 12.7L28.9332 12.9147L28.9376 12.9236L29.3848 12.7ZM29.3048 10C29.3048 9.08028 29.4846 8.26255 29.835 7.53758L28.9347 7.10242C28.5117 7.97745 28.3048 8.94639 28.3048 10H29.3048ZM29.8335 7.54066C30.1903 6.81527 30.7159 6.24765 31.4199 5.83003L30.9097 4.96997C30.0404 5.48568 29.3794 6.19806 28.9362 7.09934L29.8335 7.54066ZM31.4221 5.82875C32.1275 5.40548 33.0136 5.18 34.1048 5.18V4.18C32.8761 4.18 31.8022 4.43452 30.9076 4.97125L31.4221 5.82875ZM34.1048 5.18C35.5979 5.18 36.6736 5.55248 37.4059 6.22762L38.0837 5.49238C37.1094 4.59419 35.7585 4.18 34.1048 4.18V5.18ZM37.4119 6.23307C38.1692 6.90878 38.5772 7.79091 38.6253 8.92126L39.6244 8.87874C39.5658 7.50242 39.0538 6.35789 38.0777 5.48693L37.4119 6.23307ZM39.1248 8.4H36.7448V9.4H39.1248V8.4ZM37.2415 8.84269C37.1512 8.0599 36.8657 7.39725 36.3526 6.9007L35.6571 7.6193C35.9707 7.92274 36.1785 8.35344 36.2481 8.95731L37.2415 8.84269ZM36.3584 6.90645C35.8196 6.36765 35.058 6.14 34.1648 6.14V7.14C34.8984 7.14 35.3634 7.32568 35.6513 7.61355L36.3584 6.90645ZM34.1648 6.14C33.1379 6.14 32.2761 6.42866 31.6621 7.07587L32.3876 7.76413C32.7602 7.37134 33.3251 7.14 34.1648 7.14V6.14ZM31.6621 7.07587C31.0374 7.73432 30.7848 8.75279 30.7848 10H31.7848C31.7848 8.84721 32.0256 8.14568 32.3876 7.76413L31.6621 7.07587ZM30.7848 10C30.7848 11.2561 31.029 12.28 31.6374 12.9391L32.3722 12.2609C32.0207 11.88 31.7848 11.1705 31.7848 10H30.7848ZM31.6419 12.9439C32.245 13.5805 33.1024 13.86 34.1248 13.86V12.86C33.2806 12.86 32.7247 12.6328 32.3678 12.2561L31.6419 12.9439ZM34.1248 13.86C35.035 13.86 35.8109 13.6239 36.3729 13.0789L35.6768 12.361C35.3588 12.6694 34.868 12.86 34.1248 12.86V13.86ZM36.3675 13.0841C36.9192 12.5648 37.2304 11.8828 37.3217 11.0762L36.328 10.9638C36.2593 11.5706 36.0371 12.0218 35.6822 12.3559L36.3675 13.0841ZM36.8248 11.52H39.2048V10.52H36.8248V11.52ZM38.7051 11.0031C38.6812 11.7091 38.4969 12.3469 38.1546 12.9253L39.0151 13.4347C39.4461 12.7065 39.6752 11.9042 39.7046 11.0369L38.7051 11.0031ZM38.1569 12.9214C37.8239 13.4725 37.3236 13.9335 36.632 14.2975L37.0977 15.1825C37.9261 14.7465 38.5724 14.1675 39.0128 13.4386L38.1569 12.9214ZM36.6349 14.296C35.9758 14.6373 35.1524 14.82 34.1448 14.82V15.82C35.2706 15.82 36.2605 15.616 37.0948 15.184L36.6349 14.296ZM34.1448 14.82C33.0368 14.82 32.1425 14.5998 31.4368 14.1881L30.9329 15.0519C31.8272 15.5736 32.9062 15.82 34.1448 15.82V14.82ZM31.4421 14.1913C30.7199 13.758 30.1876 13.1876 29.8321 12.4764L28.9376 12.9236C29.382 13.8124 30.0497 14.522 30.9276 15.0487L31.4421 14.1913ZM29.8364 12.4853C29.4846 11.7453 29.3048 10.9196 29.3048 10H28.3048C28.3048 11.0537 28.5118 12.0281 28.9333 12.9147L29.8364 12.4853Z" fill="#17181C"/>
</svg>
