<svg width="32" height="32" viewBox="0 0 32 32" fill="none" xmlns="http://www.w3.org/2000/svg">
    <path fill="#F2541A" d="M27.5556 8.51863C27.5933 8.49661 27.6246 8.46509 27.6464 8.4272C27.6682 8.38931 27.6796 8.34639 27.6796 8.30269C27.6796 8.259 27.6682 8.21607 27.6464 8.17818C27.6246 8.1403 27.5933 8.10877 27.5556 8.08676L18.0093 2.54051C17.3985 2.18646 16.705 2 15.999 2C15.293 2 14.5995 2.18646 13.9887 2.54051L4.44433 8.08676C4.40659 8.10877 4.37528 8.1403 4.35352 8.17818C4.33176 8.21607 4.32031 8.259 4.32031 8.30269C4.32031 8.34639 4.33176 8.38931 4.35352 8.4272C4.37528 8.46509 4.40659 8.49661 4.44433 8.51863L15.8743 15.2424C15.9128 15.265 15.9566 15.277 16.0012 15.277C16.0458 15.277 16.0896 15.265 16.1281 15.2424L27.5556 8.51863Z"/>
    <path fill="#F2541A" d="M3.37501 10.22C3.33688 10.198 3.29362 10.1865 3.2496 10.1865C3.20558 10.1866 3.16235 10.1983 3.1243 10.2204C3.08625 10.2426 3.05471 10.2743 3.03289 10.3126C3.01106 10.3508 2.99972 10.3941 3.00001 10.4381V21.3063C3.00095 21.83 3.13899 22.3444 3.40039 22.7982C3.66179 23.252 4.03745 23.6295 4.49 23.8931L14.625 29.97C14.663 29.992 14.7061 30.0035 14.7499 30.0035C14.7938 30.0035 14.8369 29.992 14.8749 29.9701C14.9129 29.9482 14.9445 29.9166 14.9664 29.8787C14.9884 29.8407 15 29.7976 15 29.7538V17.1444C15 17.1006 14.9884 17.0575 14.9664 17.0195C14.9445 16.9816 14.913 16.9501 14.875 16.9281L3.37501 10.22Z"/>
    <path fill="#F2541A" d="M17 17.1881V29.7506C17 29.7945 17.0116 29.8375 17.0336 29.8755C17.0556 29.9135 17.0871 29.945 17.1251 29.9669C17.1631 29.9888 17.2062 30.0003 17.2501 30.0003C17.2939 30.0003 17.337 29.9888 17.375 29.9668L27.5094 23.89C27.9616 23.6267 28.3371 23.2497 28.5986 22.7965C28.8601 22.3432 28.9984 21.8295 29 21.3062V10.4381C28.9998 10.3943 28.9882 10.3513 28.9662 10.3134C28.9442 10.2755 28.9126 10.2441 28.8746 10.2222C28.8366 10.2004 28.7936 10.1889 28.7498 10.189C28.706 10.189 28.6629 10.2006 28.625 10.2225L17.125 16.9725C17.0871 16.9943 17.0556 17.0257 17.0337 17.0636C17.0118 17.1014 17.0002 17.1444 17 17.1881Z"/>
</svg>
